<?xml version="1.0" encoding="UTF-8"?>
<svg id="ea" xmlns="http://www.w3.org/2000/svg" viewBox="0 0 819 824.24">
  <path d="M216,652.49c-37.5,0-69.26-6.13-95.25-18.38-26-12.25-47-28.24-63-48-16.01-19.75-27.75-41.12-35.25-64.12-7.5-22.99-11.25-45.25-11.25-66.75,0-39.49,8.74-74.25,26.25-104.25,17.5-30,41.74-53.5,72.75-70.5,31-16.99,66.49-25.5,106.5-25.5,31,0,57.49,5,79.5,15,22,10.01,39.87,22.76,53.62,38.25,13.75,15.5,23.87,32,30.38,49.5,6.49,17.51,9.75,33.75,9.75,48.75,0,28.5-7.01,50.25-21,65.25-14,15-32,22.5-54,22.5h-159.75c1.99,8,6.12,14.88,12.38,20.62,6.25,5.75,14.12,10.25,23.62,13.5,9.49,3.26,19.75,4.88,30.75,4.88s20.74-.62,29.25-1.88c8.5-1.24,15.87-2.87,22.12-4.88,6.25-1.99,12-4,17.25-6,5.25-1.99,10-3.62,14.25-4.88,4.24-1.24,8.37-1.88,12.38-1.88,9,0,17.25,3,24.75,9s14.25,15,20.25,27c3.49,6.5,6,12.63,7.5,18.38,1.5,5.75,2.25,11.13,2.25,16.12,0,15-6.13,27.5-18.38,37.5-12.26,10.01-29.88,17.62-52.88,22.88-23,5.25-51.26,7.88-84.75,7.88ZM155.25,423.74h84c7,0,12.12-1.5,15.38-4.5,3.25-3,4.88-7.5,4.88-13.5,0-6.49-1.88-12-5.62-16.5s-8.88-7.88-15.38-10.12c-6.5-2.25-14.25-3.38-23.25-3.38-12,0-22.5,2.38-31.5,7.12-9,4.76-15.88,10.76-20.62,18-4.76,7.25-7.38,14.88-7.88,22.88Z" style="fill: red; stroke-width: 0px;"/>
  <path d="M728,642.74c-22.5,0-39.13-3.75-49.88-11.25-10.76-7.5-15.88-16-15.38-25.5h10.5c-2.51,3.5-7.38,8.13-14.62,13.88-7.25,5.75-16.88,11-28.88,15.75s-26.75,7.12-44.25,7.12c-22.5,0-44.13-5.13-64.88-15.38-20.75-10.24-39.26-24.38-55.5-42.38-16.25-18-29.13-38.37-38.62-61.12-9.5-22.75-14.25-46.62-14.25-71.62s4.75-48,14.25-70.5c9.49-22.5,22.5-42.62,39-60.38,16.5-17.74,34.99-31.75,55.5-42,20.5-10.24,42-15.38,64.5-15.38,16.99,0,31.37,2.51,43.12,7.5,11.74,5,21.25,10.5,28.5,16.5,7.24,6,12.12,11,14.62,15h-8.25c-.5-12.49,4.62-22.24,15.38-29.25,10.75-7,27.38-10.5,49.88-10.5s38.37,3.38,47.62,10.12c9.25,6.75,14.87,15.38,16.88,25.88,1.99,10.5,3,21.26,3,32.25v243.75c0,11-1.01,21.75-3,32.25-2,10.5-7.63,19.01-16.88,25.5-9.26,6.49-25.38,9.75-48.38,9.75ZM604.25,506.99c9.49,0,18.12-2.5,25.88-7.5,7.75-4.99,13.99-11.62,18.75-19.88,4.75-8.25,7.12-17.12,7.12-26.62,0-10-2.38-19-7.12-27-4.76-7.99-11.13-14.5-19.12-19.5-8-4.99-17-7.5-27-7.5s-19.12,2.51-27.38,7.5c-8.25,5-14.88,11.62-19.88,19.88-5,8.25-7.5,17.38-7.5,27.38s2.62,18.26,7.88,26.25c5.25,8,12.12,14.51,20.62,19.5,8.5,5,17.74,7.5,27.75,7.5Z" style="fill: #fff; stroke-width: 0px;"/>
</svg>