<svg height="498.622" viewBox="0 0 498.622 498.622" width="498.622" xmlns="http://www.w3.org/2000/svg"><circle cx="249.311" cy="249.311" fill="#f3ead9" r="249.311"/><path d="m317.397 228.53c-6.246 7.601-20.993 5.805-32.939-4.011-11.945-9.816-16.565-23.936-10.319-31.537s20.994-5.805 32.939 4.011 16.566 23.936 10.319 31.537zm-103.507-24.778c38.235 0 69.232-30.997 69.232-69.232s-30.997-69.232-69.232-69.232c-20.076 0-38.147 8.554-50.792 22.206 3.139-12.142 1.204-23.623-6.393-30.696-13.189-12.281-38.415-6.627-56.342 12.626-8.082 8.68-13.29 18.64-15.376 28.09-27.727 9.035-47.77 35.082-47.77 65.823 0 9.542 1.932 18.633 5.423 26.904-7.247 10.943-11.477 24.059-11.477 38.167 0 38.236 30.996 69.232 69.232 69.232 2.852 0 5.656-.192 8.417-.527 2.863 18.057 18.497 31.862 37.359 31.862 6.808 0 13.19-1.808 18.709-4.955.725 3.435 2.147 6.609 4.109 9.377-2.016 4.218-3.146 8.94-3.146 13.927 0 17.864 14.482 32.346 32.346 32.346s32.346-14.481 32.346-32.346c0-11.707-6.22-21.96-15.534-27.639.011-.307.023-.614.023-.924 0-13.999-11.349-25.347-25.347-25.347-1.997 0-3.937.238-5.8.674.075-.973.125-1.953.125-2.944 0-14.741-8.437-27.503-20.739-33.747 4.074-8.82 6.363-18.634 6.363-28.988 0-9.542-1.932-18.633-5.423-26.904 2.64-3.987 4.87-8.266 6.649-12.774 11.818 9.395 26.766 15.023 43.037 15.023zm177.781 111.008c-11.178 0-20.24 9.062-20.24 20.24s9.062 20.24 20.24 20.24 20.24-9.062 20.24-20.24-9.062-20.24-20.24-20.24zm-282.197 14.214c-13.999 0-25.347 11.349-25.347 25.347s11.349 25.347 25.347 25.347 25.348-11.348 25.348-25.347-11.349-25.347-25.348-25.347zm368.021-132.056c-4.567-15.645-14.339-26.554-21.826-24.369-7.486 2.186-9.853 16.64-5.285 32.284 4.568 15.645 14.339 26.554 21.826 24.369 7.486-2.186 9.853-16.64 5.285-32.284zm-25.927 52.903c1.358-11.19-1.812-25.365-9.591-38.838-11.83-20.489-30.394-32.578-44.32-29.967 5.955-11.814 6.018-27.209-1.111-41.042-11.085-21.509-35.34-31.076-54.173-21.369s-25.114 35.012-14.028 56.521c11.025 21.392 35.074 30.963 53.863 21.518-.919 3.36-1.345 7.108-1.272 11.116-1.651.158-3.279.507-4.864 1.085-14.524 5.303-20.013 26.816-12.26 48.053s25.812 34.153 40.336 28.851c7.241-2.644 12.235-9.318 14.463-17.977 3.065 1.412 6.112 2.356 9.057 2.79-1.131 4.22-1.759 8.865-1.759 13.744 0 19.327 9.824 34.994 21.942 34.994s21.942-15.667 21.942-34.994c0-17.306-7.878-31.667-18.226-34.484z" fill="#e9d9bb"/></svg>